<svg xmlns="http://www.w3.org/2000/svg" viewBox="0 0 494 499">
   <path d="M 204,497.9697 C 149.01397,492.74703 101.78562,470.75047 63.459149,432.51291 25.148445,394.2911 5.4533656,348.55564 0.95528478,287.3679 -1.4335871,254.87189 3.6319729,219.20576 15.107966,187.72022 23.30228,165.23829 37.308755,139.58362 52.762415,118.75122 116.40304,32.960081 210.08419,-8.6390701 315.5,2.0824862 c 37.15952,3.7793943 77.97119,17.9004568 102.57613,35.4919028 34.07396,24.361393 60.68337,62.197476 70.21145,106.533711 2.10225,9.78223 3.99969,18.59197 3.99573,40.03383 -0.003,17.95441 -1.23839,27.25492 -2.56357,35.85807 -6.34991,41.22385 -26.74535,91.44354 -56.58519,139.32968 -26.75006,42.92777 -63.3992,79.60813 -94.63455,94.71521 -9.76895,4.72479 -18.74649,7.75383 -29.44543,6.16587 -20.32855,-3.0172 -30.98369,-15.47266 -37.28485,-43.58463 -2.02998,-9.05655 -2.26585,-12.71397 -2.23304,-34.62613 0.037,-24.72966 0.9972,-38.17925 5.96805,-83.59715 1.77338,-16.20318 2.15656,-23.0048 1.43658,-25.5 -4.11609,-14.26492 -17.28367,-11.07205 -38.5158,9.33932 -24.88078,23.91895 -40.89787,46.53715 -47.41966,66.96265 -1.75181,5.48647 -10.71696,61.53743 -12.52303,78.29518 -0.35565,3.3 -0.86067,6.77349 -1.12224,7.71888 -0.68719,2.4836 -6.5302,3.76917 -17.16024,3.77554 -9.71963,0.006 -14.26139,-1.3393 -16.05422,-4.75477 -0.61213,-1.16615 2.81969,-28.4426 10.40999,-82.73965 16.69999,-119.4631 19.87388,-135.41114 19.19273,-137.88007 -0.47231,-0.75495 -1.6209,0.26437 -7.77324,0.0516 -8.2606,-0.74875 -15.47283,-1.71699 -23.893,-7.61855 -4.41941,-3.46942 -17.32228,-12.58664 -11.2079,-18.03962 3.99459,-2.24293 7.36482,1.68972 10.10419,4.30658 6.82623,6.31989 10.84105,8.66483 18.95261,11.06972 5.71608,1.69468 14.67923,-0.5372 15.49384,-1.85526 0.26448,-0.42794 0.58505,-5.27794 2.01099,-14.0625 16.32484,-100.570187 37.9785,-155.582559 63.99724,-162.588677 6.37705,-1.717162 13.44388,-2.009313 21.87993,2.291465 5.69845,2.905126 8.40232,6.285015 11.13057,9.906307 15.72178,20.868032 5.28704,71.823515 -23.15567,114.918975 -11.00392,16.67278 -22.9791,30.22846 -39.54036,44.75896 -4.0327,3.5382 -4.0296,3.52981 -6.18822,16.74104 -2.46977,15.11554 -10.55936,75.82752 -10.5597,79.25 -2.5e-4,2.62966 1.83713,0.92176 9.77689,-9.08786 23.52824,-29.66195 52.41523,-49.33918 69.46718,-47.31963 2.70059,0.31985 7.23793,1.66034 10.08299,2.97888 17.15134,7.94878 24.87849,28.47281 24.91575,66.17861 0.0195,19.72078 -0.71635,28.34451 -6.86892,80.5 -4.81922,40.85268 -5.0607,48.88914 -1.67705,55.81137 2.42987,4.97098 6.24574,6.67446 14.80304,6.60836 12.37888,-0.0956 22.25078,-6.59554 39.74673,-26.1703 29.89697,-33.44925 50.90376,-64.55523 69.21236,-102.48677 14.13984,-29.29478 24.42052,-58.20277 29.43326,-82.76266 4.14819,-20.32404 5.27408,-53.01057 2.58442,-75.02986 C 449.85297,107.74353 426.67606,67.807979 385.97195,40.48503 355.77383,20.214312 318.96003,10.701828 277,12.327276 200.32526,15.297503 140.175,45.223459 98.178762,101.29441 56.261673,157.25969 41.108619,225.10803 53.038086,303.4134 58.464181,339.03046 70.549657,372.3172 87.332345,397.86929 112.7298,436.53758 149.96178,464.65041 190,475.39077 c 49.80047,13.3591 111.82152,5.09871 165.03418,-21.98039 C 405.9868,427.48137 447.23322,373.91069 474.46856,329 c 5.72705,-9.44383 6.56459,-11.5546 10.13352,-12.97469 1.61909,-0.64424 5.68668,0.2262 7.18234,2.17494 2.16095,2.81555 1.3157,8.38296 -4.5912,18.87896 -9.11161,16.19046 -21.03712,33.29541 -32.04722,47.04579 -10.73152,13.40246 -33.89629,37.15098 -49.6698,50.75345 -47.82229,41.24008 -108.64432,62.02019 -174.9762,63.591 -9.35,0.22141 -21.275,-0.003 -26.5,-0.49975 z M 220.48816,170.75 c 23.92317,-28.73593 43.03181,-70.02975 47.4969,-102.640915 1.83708,-13.417271 -0.54524,-22.383622 -7.32022,-27.551153 -7.3593,-5.61321 -12.0702,-2.250957 -18.41597,13.143807 C 236.2087,68.35509 231.75398,83.109657 226.15695,107 221.68077,126.1061 212,174.48866 212,177.75361 c 0,2.52457 1.77517,1.05987 8.48816,-7.00361"/>
</svg>
